# xmcd
#
# Track frame offsets: 
#        150
#        13479
#        32196
#        53977
#        69698
#        90036
#        110621
#        133407
#        148827
#        168360
#        186015
#
# Disc length: 2775 seconds
#
# Revision: 5
# Processed by: cddbd v1.5.2PL0 Copyright (c) Steve Scherf et al.
# Submitted via: ExactAudioCopy v1.3
#
DISCID=a10ad50b
DTITLE=Bad Meets Evil - Hell - The sequel (Deluxe edition)
DYEAR=2011
DGENRE=Hip Hop
TTITLE0=Welcome 2 hell
TTITLE1=Fast lane
TTITLE2=The reunion
TTITLE3=Above the law
TTITLE4=I'm on everything (feat. Mike Epps)
TTITLE5=A kiss
TTITLE6=Lighters (feat. Bruno Mars)
TTITLE7=Take from me
TTITLE8=Loud noises (feat. Slaughterhouse)
TTITLE9=Living proof
TTITLE10=Echo
EXTD=Eminem and Royce Da 5'9
EXTT0=
EXTT1=
EXTT2=
EXTT3=
EXTT4=
EXTT5=
EXTT6=
EXTT7=
EXTT8=
EXTT9=
EXTT10=
PLAYORDER=
